<svg viewBox="0 0 640 400" data-background-color="#ffffff" preserveAspectRatio="xMidYMid meet" height="400" width="640"
     xmlns="http://www.w3.org/2000/svg" xmlns:xlink="http://www.w3.org/1999/xlink">
    <rect width="640" height="400" x="0" y="0" opacity="1" fill="#ffffff"
          id="background"></rect>
    <g id="tight-bounds" transform="matrix(1,0,0,1,122.24000000000001,76.4)">
        <svg viewBox="0 0 395.52 247.2" height="247.2" width="395.52">
            <g>
                <svg></svg>
            </g>
            <g>
                <svg viewBox="0 0 395.52 247.2" height="247.2" width="395.52">
                    <g>
                        <g>
                            <path xmlns="http://www.w3.org/2000/svg"
                                  d="M223.529 214.178c7.612 0 12.962-2.16 16.048-6.481 3.086-4.321 4.629-9.156 4.629-14.504l0-21.857 36.726 0v24.325c0 16.665-5.555 29.113-16.666 37.343-5.349 3.909-10.843 6.934-16.48 9.073-5.678 2.181-11.192 3.271-16.541 3.271h-51.848c-3.498 0-6.213-1.44-8.147-4.32-1.975-2.88-2.963-6.687-2.963-11.419 0-10.287 4.423-15.431 13.271-15.431zM244.206 51.847c0-5.144-1.543-9.876-4.629-14.196-3.086-4.321-8.435-6.481-16.048-6.481h-72.215l-0.069 44.694-36.657 0v-57.347c0-7.407 1.913-12.345 5.741-14.814 3.786-2.469 8.353-3.703 13.702-3.703h97.214c5.349 0 10.904 1.132 16.665 3.395 5.761 2.263 11.316 5.144 16.665 8.641h-0.309c5.349 3.909 9.464 9.012 12.345 15.307 2.88 6.255 4.321 13.497 4.321 21.727v26.794l-36.726 0zM151.005 232.387c0 4.526-1.749 8.127-5.246 10.801-3.498 2.675-7.818 4.012-12.962 4.012-12.139 0-18.208-4.938-18.209-14.813l0-61.051 36.511 0z"
                                  fill="#010c80" fill-rule="nonzero" stroke="none" stroke-width="1"
                                  stroke-linecap="butt" stroke-linejoin="miter" stroke-miterlimit="10"
                                  stroke-dasharray="" stroke-dashoffset="0"
                                  style="mix-blend-mode: normal"
                            ></path>
                        </g>
                    </g>
                    <g transform="matrix(1,0,0,1,2.842170943040401e-14,88.0199443087852)">
                        <svg viewBox="0 0 395.5199999999999 71.16011138242958" height="71.16011138242958"
                             width="395.5199999999999">
                            <g>
                                <svg viewBox="0 0 501.0697559062178 90.15013056394939" height="71.16011138242958"
                                     width="395.5199999999999">
                                    <g transform="matrix(1,0,0,1,0,12.459243804424268)">
                                        <svg viewBox="0 0 395.52 65.23164295510085" height="65.23164295510085"
                                             width="395.52">
                                            <g id="textblocktransform">
                                                <svg viewBox="0 0 395.52 65.23164295510085" height="65.23164295510085"
                                                     width="395.52" id="textblock">
                                                    <g>
                                                        <svg viewBox="0 0 395.52 65.23164295510085"
                                                             height="65.23164295510085" width="395.52">
                                                            <g transform="matrix(1,0,0,1,0,0)">
                                                                <svg width="395.52"
                                                                     viewBox="4 -40 244.634765625 40.349998474121094"
                                                                     height="65.23164295510085"
                                                                     data-palette-color="#010c80">
                                                                    <path d="M14.85-5L21.65-5Q23.5-5 24.25-6.05 25-7.1 25-8.4L25-8.4 25-31.3Q25-32.55 24.25-33.6 23.5-34.65 21.65-34.65L21.65-34.65 9.95-34.65 9.9-2.05Q9.9-0.95 9.05-0.3 8.2 0.35 6.95 0.35L6.95 0.35Q4 0.35 4-2.05L4-2.05 4-36.7Q4-38.5 4.93-39.1 5.85-39.7 7.15-39.7L7.15-39.7 22.9-39.7Q24.2-39.7 25.6-39.15 27-38.6 28.3-37.75L28.3-37.75 28.25-37.75Q29.55-36.8 30.25-35.27 30.95-33.75 30.95-31.75L30.95-31.75 30.95-8Q30.95-3.95 28.25-1.95L28.25-1.95Q26.95-1 25.58-0.48 24.2 0.05 22.9 0.05L22.9 0.05 14.5 0.05Q13.65 0.05 13.18-0.65 12.7-1.35 12.7-2.5L12.7-2.5Q12.7-5 14.85-5L14.85-5ZM60 0.05L41.7 0.05Q39.85 0.05 39.2-0.9 38.55-1.85 38.55-3L38.55-3 38.55-36.7Q38.55-37.85 39.2-38.78 39.85-39.7 41.7-39.7L41.7-39.7 59.1-39.7Q60.95-39.7 61.05-37.2L61.05-37.2Q61.15-34.65 59.1-34.65L59.1-34.65 44.45-34.65 44.45-5 60-5Q61.85-5 61.9-2.55L61.9-2.55Q62 0.05 60 0.05L60 0.05ZM57.25-20.65L57.25-20.65Q57.25-18.9 56.02-17.7 54.8-16.5 53.05-16.5L53.05-16.5Q51.35-16.5 50.15-17.7 48.95-18.9 48.95-20.65L48.95-20.65Q48.95-22.4 50.15-23.6 51.35-24.8 53.05-24.8L53.05-24.8Q54.8-24.8 56.02-23.6 57.25-22.4 57.25-20.65ZM79.05 0.25L79.05 0.25Q78.05 0.25 76.92-0.08 75.8-0.4 75.3-1.3L75.3-1.3Q74.15-5.2 72.9-9.3 71.64-13.4 70.39-17.35L70.39-17.35Q69-22 67.39-27.03 65.8-32.05 64.39-36.65L64.39-36.65Q64.09-37.75 64.75-38.58 65.39-39.4 66.59-39.8L66.59-39.8Q67.34-40 67.89-40L67.89-40Q69.59-40 70.09-38.3L70.09-38.3 73.8-26.45Q74.3-24.65 74.97-22.5 75.65-20.35 76.34-18.1 77.05-15.85 77.75-13.63 78.45-11.4 79.05-9.5L79.05-9.5Q80-12.65 81.12-16.32 82.25-20 83.42-23.8 84.59-27.6 85.75-31.33 86.9-35.05 87.9-38.3L87.9-38.3Q88.45-40 90.05-40L90.05-40Q90.65-40 91.45-39.8L91.45-39.8Q94.2-39.05 93.59-36.65L93.59-36.65Q90.9-27.9 88.15-19 85.4-10.1 82.7-1.3L82.7-1.3Q82.3-0.3 81.22-0.03 80.15 0.25 79.05 0.25ZM119.84 0.05L101.54 0.05Q99.69 0.05 99.04-0.9 98.39-1.85 98.39-3L98.39-3 98.39-36.7Q98.39-37.85 99.04-38.78 99.69-39.7 101.54-39.7L101.54-39.7 118.94-39.7Q120.79-39.7 120.89-37.2L120.89-37.2Q120.99-34.65 118.94-34.65L118.94-34.65 104.29-34.65 104.29-5 119.84-5Q121.69-5 121.74-2.55L121.74-2.55Q121.84 0.05 119.84 0.05L119.84 0.05ZM117.09-20.65L117.09-20.65Q117.09-18.9 115.87-17.7 114.64-16.5 112.89-16.5L112.89-16.5Q111.19-16.5 109.99-17.7 108.79-18.9 108.79-20.65L108.79-20.65Q108.79-22.4 109.99-23.6 111.19-24.8 112.89-24.8L112.89-24.8Q114.64-24.8 115.87-23.6 117.09-22.4 117.09-20.65ZM138.89 0.25L138.89 0.25Q137.89 0.25 136.76-0.08 135.64-0.4 135.14-1.3L135.14-1.3Q133.99-5.2 132.74-9.3 131.49-13.4 130.24-17.35L130.24-17.35Q128.84-22 127.24-27.03 125.64-32.05 124.24-36.65L124.24-36.65Q123.94-37.75 124.59-38.58 125.24-39.4 126.44-39.8L126.44-39.8Q127.19-40 127.74-40L127.74-40Q129.44-40 129.94-38.3L129.94-38.3 133.64-26.45Q134.14-24.65 134.81-22.5 135.49-20.35 136.19-18.1 136.89-15.85 137.59-13.63 138.29-11.4 138.89-9.5L138.89-9.5Q139.84-12.65 140.97-16.32 142.09-20 143.26-23.8 144.44-27.6 145.59-31.33 146.74-35.05 147.74-38.3L147.74-38.3Q148.29-40 149.89-40L149.89-40Q150.49-40 151.29-39.8L151.29-39.8Q154.04-39.05 153.44-36.65L153.44-36.65Q150.74-27.9 147.99-19 145.24-10.1 142.54-1.3L142.54-1.3Q142.14-0.3 141.06-0.03 139.99 0.25 138.89 0.25ZM166.19-39.7L177.09-39.7Q178.39-39.7 179.79-39.15 181.19-38.6 182.49-37.75L182.49-37.75 182.44-37.75Q183.74-36.8 184.44-35.27 185.14-33.75 185.14-31.75L185.14-31.75 185.14-8Q185.14-3.95 182.44-1.95L182.44-1.95Q181.14-1 179.76-0.48 178.39 0.05 177.09 0.05L177.09 0.05 166.19 0.05Q164.89 0.05 163.51-0.48 162.14-1 160.84-1.95L160.84-1.95Q159.54-2.95 158.84-4.42 158.14-5.9 158.14-8L158.14-8 158.14-31.75Q158.14-33.75 158.84-35.27 159.54-36.8 160.84-37.75L160.84-37.75 160.79-37.75Q162.09-38.6 163.49-39.15 164.89-39.7 166.19-39.7L166.19-39.7ZM167.44-5L175.84-5Q177.69-5 178.44-6.05 179.19-7.1 179.19-8.4L179.19-8.4 179.19-31.3Q179.19-32.55 178.44-33.6 177.69-34.65 175.84-34.65L175.84-34.65 167.44-34.65Q165.59-34.65 164.84-33.6 164.09-32.55 164.09-31.3L164.09-31.3 164.09-8.4Q164.09-7.1 164.84-6.05 165.59-5 167.44-5L167.44-5ZM198.59-21.2L213.84-39.1Q214.59-40 215.53-40L215.53-40Q216.59-40 217.69-39.05L217.69-39.05Q218.24-38.5 218.61-37.95 218.99-37.4 218.99-36.85L218.99-36.85Q218.99-35.95 218.34-35.3L218.34-35.3 211.63-27.5 198.59-12.15 198.59-2.1Q198.59 0.3 195.59 0.3L195.59 0.3Q192.63 0.3 192.63-2.1L192.63-2.1 192.63-37.55Q192.63-39.95 195.59-39.95L195.59-39.95Q198.59-39.95 198.59-37.55L198.59-37.55 198.59-21.2ZM216.24-1.5L206.74-15.35Q206.24-16.05 206.24-17.05L206.24-17.05Q206.24-18.55 207.49-19.45L207.49-19.45 207.44-19.45Q208.44-20.15 209.44-20.15L209.44-20.15Q210.38-20.15 211.03-19.05L211.03-19.05 220.69-4.95 220.63-5Q221.09-4.3 221.09-3.5L221.09-3.5Q221.09-2.2 219.78-1.2L219.78-1.2 219.84-1.2Q219.28-0.85 218.78-0.65 218.28-0.45 217.88-0.45L217.88-0.45Q217.49-0.45 217.06-0.75 216.63-1.05 216.24-1.5L216.24-1.5ZM246.73 0.05L228.43 0.05Q226.58 0.05 225.93-0.9 225.28-1.85 225.28-3L225.28-3 225.28-36.7Q225.28-37.85 225.93-38.78 226.58-39.7 228.43-39.7L228.43-39.7 245.83-39.7Q247.68-39.7 247.78-37.2L247.78-37.2Q247.88-34.65 245.83-34.65L245.83-34.65 231.18-34.65 231.18-5 246.73-5Q248.58-5 248.63-2.55L248.63-2.55Q248.73 0.05 246.73 0.05L246.73 0.05ZM243.98-20.65L243.98-20.65Q243.98-18.9 242.76-17.7 241.53-16.5 239.78-16.5L239.78-16.5Q238.08-16.5 236.88-17.7 235.68-18.9 235.68-20.65L235.68-20.65Q235.68-22.4 236.88-23.6 238.08-24.8 239.78-24.8L239.78-24.8Q241.53-24.8 242.76-23.6 243.98-22.4 243.98-20.65Z"
                                                                          opacity="1" transform="matrix(1,0,0,1,0,0)"
                                                                          fill="#010c80" class="wordmark-text-0"
                                                                          id="text-0"></path>
                                                                </svg>
                                                            </g>
                                                        </svg>
                                                    </g>
                                                </svg>
                                            </g>
                                        </svg>
                                    </g>
                                    <g transform="matrix(1,0,0,1,410.9196253422684,0)">
                                        <svg viewBox="0 0 90.15013056394939 90.15013056394939"
                                             height="90.15013056394939" width="90.15013056394939">

                                            <rect width="24.6410356874795" height="90.15013056394939" fill="#77d4fc"
                                                  stroke="transparent" x="0"
                                                  fill-opacity="1"></rect>
                                            <rect width="24.6410356874795" height="90.15013056394939" fill="#77d4fc"
                                                  stroke="transparent"
                                                  x="30.050043521316464" fill-opacity="0.75"></rect>
                                            <rect width="24.6410356874795" height="90.15013056394939" fill="#77d4fc"
                                                  stroke="transparent"
                                                  x="60.10008704263293" fill-opacity="0.5"></rect>

                                        </svg>
                                    </g>
                                </svg>
                            </g>
                        </svg>
                    </g>
                </svg>
            </g>
            <defs></defs>
        </svg>
        <rect width="395.52" height="247.2" fill="none" stroke="none" visibility="hidden"></rect>
    </g>
</svg>