<svg preserveAspectRatio="xMidYMid meet" viewBox="0 -.00000022 222.87644958 147.00001526"
     xmlns="http://www.w3.org/2000/svg">
    <g>
        <path d="m54.008 5c-11.801 0-21.371 9.566-21.371 21.371 0 10.316 7.313 18.926 17.035 20.93-4.754-2.856-7.875-7.676-7.875-13.145 0-8.766 8.031-15.875 17.938-15.875 6.719 0 12.574 3.27 15.645 8.11v-.016c0-11.81-9.57-21.375-21.371-21.375zm-27.637 19.625c-11.805 0-21.371 9.566-21.371 21.367s9.566 21.371 21.371 21.371c10.316 0 18.926-7.313 20.93-17.035-2.856 4.754-7.676 7.875-13.145 7.875-8.766 0-15.875-8.031-15.875-17.938 0-6.719 3.27-12.574 8.11-15.645h-.016zm47.262 8.016c-10.316 0-18.926 7.312-20.93 17.035 2.856-4.754 7.676-7.875 13.145-7.875 8.766 0 15.875 8.03 15.875 17.938 0 6.718-3.27 12.574-8.11 15.645h.016c11.805-.008 21.371-9.575 21.371-21.375 0-11.805-9.566-21.371-21.37-21.371zm-23.305 20.059c4.754 2.855 7.875 7.675 7.875 13.145 0 8.765-8.031 15.875-17.938 15.875-6.719 0-12.574-3.27-15.645-8.11v.016c0 11.809 9.57 21.374 21.371 21.374s21.371-9.567 21.371-21.371c0-10.316-7.312-18.926-17.035-20.93z"
              fill="#4c98c9" transform="matrix(1.2382024603 0 0 1.2382024603 49.528098412 -6.1910123015)"/>
    </g>
</svg>