<?xml version="1.0" standalone="no"?>
<!DOCTYPE svg PUBLIC "-//W3C//DTD SVG 20010904//EN"
 "http://www.w3.org/TR/2001/REC-SVG-20010904/DTD/svg10.dtd">
<svg version="1.0" xmlns="http://www.w3.org/2000/svg"
 width="700.000000pt" height="700.000000pt" viewBox="0 0 700.000000 700.000000"
 preserveAspectRatio="xMidYMid meet">
<metadata>
Created by potrace 1.14, written by Peter Selinger 2001-2017
</metadata>
<g transform="translate(0.000000,700.000000) scale(0.100000,-0.100000)"
fill="#000000" stroke="none">
<path d="M2943 6015 c-75 -17 -158 -61 -192 -101 -64 -79 -64 -73 -68 -776
l-5 -638 371 0 371 0 0 450 0 451 763 -2 c450 0 785 -5 817 -11 137 -25 231
-117 277 -271 19 -63 22 -122 23 -394 l0 -223 371 0 370 0 -2 319 c-2 413 -18
522 -102 688 -91 178 -220 294 -450 403 -118 56 -203 85 -302 104 -95 19
-2162 19 -2242 1z"/>
<path d="M401 4036 c-11 -5 -23 -15 -26 -24 -11 -28 -6 -951 5 -972 19 -35
118 -26 132 12 3 7 6 202 7 432 1 231 4 423 6 427 3 3 80 5 171 3 154 -3 169
-4 188 -24 20 -20 21 -29 21 -355 0 -419 21 -380 -215 -384 -78 -2 -89 -7 -96
-53 -5 -27 -2 -40 13 -55 17 -17 33 -19 159 -18 110 1 147 5 176 19 49 23 96
72 107 111 5 16 9 187 10 378 1 292 -2 354 -15 385 -21 51 -51 81 -104 105
-41 18 -67 20 -282 21 -130 1 -246 -3 -257 -8z"/>
<path d="M1314 4042 c-12 -2 -30 -12 -39 -22 -16 -17 -17 -59 -17 -480 0 -505
0 -505 56 -512 59 -7 525 -3 532 5 14 14 9 98 -7 108 -8 5 -107 9 -221 9 -178
0 -208 2 -208 15 -1 20 -1 560 0 668 l0 82 200 1 c111 0 205 5 210 10 15 15
18 56 8 87 -7 20 -17 27 -36 28 -68 3 -459 4 -478 1z"/>
<path d="M1944 4024 c-20 -19 -24 -31 -19 -52 7 -30 55 -190 90 -299 13 -39
60 -192 105 -340 45 -148 88 -277 96 -287 9 -13 30 -20 63 -24 69 -6 100 3
113 36 10 26 75 228 103 322 7 25 30 99 50 165 39 128 45 147 97 326 36 122
36 149 -1 168 -22 12 -61 14 -85 5 -14 -5 -55 -122 -136 -389 -11 -33 -38
-121 -61 -195 -23 -74 -44 -141 -45 -148 -3 -16 -12 -27 -18 -21 -2 2 -34 101
-71 219 -114 370 -158 504 -169 523 -17 27 -81 23 -112 -9z"/>
<path d="M2868 4042 c-70 -6 -68 9 -66 -510 1 -417 3 -465 18 -484 16 -20 27
-21 279 -22 283 -2 301 1 301 49 0 13 -4 35 -10 49 l-10 26 -215 0 -216 0 3
382 3 383 198 1 c127 0 201 4 208 11 18 18 21 76 6 97 -13 18 -30 19 -238 20
-123 1 -241 0 -261 -2z"/>
<path d="M3491 4031 c-34 -26 -31 -47 34 -256 52 -164 103 -332 157 -505 11
-36 28 -96 39 -135 26 -90 52 -115 120 -115 88 0 79 -17 193 350 24 80 63 204
85 275 48 155 101 344 101 360 0 17 -55 45 -89 45 -33 0 -54 -23 -70 -76 -5
-16 -42 -132 -81 -259 -40 -126 -78 -250 -85 -275 -41 -140 -49 -160 -55 -153
-4 4 -17 42 -29 83 -13 41 -33 109 -46 150 -13 41 -51 162 -84 267 -84 269
-82 263 -128 263 -21 0 -49 -9 -62 -19z"/>
<path d="M4493 4034 c-24 -6 -60 -24 -81 -41 -71 -56 -70 -54 -71 -441 -1
-191 3 -364 8 -386 11 -45 51 -90 106 -119 36 -19 58 -21 225 -22 194 -1 215
3 284 49 16 10 38 40 49 65 20 44 21 62 21 402 -1 354 -1 356 -24 397 -26 47
-78 86 -130 97 -53 12 -338 11 -387 -1z m363 -147 l23 -27 0 -319 c0 -175 -3
-329 -6 -340 -10 -39 -48 -48 -195 -47 -129 1 -139 2 -160 24 l-23 23 0 333
c0 311 1 335 19 354 22 25 37 27 195 26 122 0 124 0 147 -27z"/>
<path d="M5246 4035 c-13 -14 -15 -78 -16 -494 0 -263 2 -485 6 -494 6 -17 56
-32 89 -28 50 7 55 24 55 176 l0 141 46 55 c26 30 68 79 94 109 26 30 91 107
145 170 54 63 109 129 124 145 41 47 107 129 115 142 8 15 -9 51 -37 76 -37
32 -70 22 -120 -35 -128 -149 -196 -229 -237 -277 -25 -30 -64 -74 -87 -100
l-42 -46 -1 221 c0 201 -2 222 -18 237 -24 22 -95 22 -116 2z"/>
<path d="M6128 4042 c-58 -7 -58 -3 -58 -508 0 -439 1 -463 19 -485 l19 -24
271 0 c231 0 273 2 281 15 12 19 13 52 0 84 l-10 26 -215 0 -215 0 2 382 3
382 198 2 c124 0 202 5 208 11 16 16 19 79 5 99 -12 15 -38 17 -247 18 -129 1
-246 0 -261 -2z"/>
<path d="M1583 3650 c-47 -20 -71 -99 -44 -148 15 -28 61 -52 99 -52 58 0 112
74 97 133 -14 56 -95 92 -152 67z"/>
<path d="M3125 3648 c-34 -20 -46 -37 -52 -73 -16 -99 90 -163 165 -100 36 30
48 72 33 118 -19 55 -95 84 -146 55z"/>
<path d="M6376 3637 c-52 -42 -44 -142 15 -172 69 -36 145 3 156 81 5 36 1 46
-24 74 -39 43 -105 51 -147 17z"/>
<path d="M5605 3515 c-46 -45 -35 -69 139 -320 89 -128 123 -164 145 -158 32
8 71 50 71 75 0 21 -135 231 -242 376 -44 60 -74 67 -113 27z"/>
<path d="M2682 1902 l4 -667 23 -40 c36 -63 61 -86 131 -118 59 -27 76 -30
180 -32 195 -4 302 48 372 180 22 40 22 47 22 690 l1 650 -368 2 -369 2 4
-667z"/>
<path d="M5299 2357 c-1 -269 -4 -314 -30 -390 -46 -140 -128 -219 -256 -247
-29 -7 -245 -13 -552 -16 -481 -4 -505 -5 -551 -25 -78 -33 -122 -99 -139
-206 -29 -186 48 -367 166 -389 48 -9 1118 -10 1196 -1 214 25 486 155 644
308 106 103 170 206 212 343 42 136 49 212 50 552 l2 284 -371 -1 -370 0 -1
-212z"/>
</g>
</svg>
